<svg width="58" height="98" viewBox="0 0 58 98" fill="none" xmlns="http://www.w3.org/2000/svg">
<path d="M0 49.8207C7.00906 49.8207 13.6093 50.5287 19.8006 51.9448C25.8751 53.3609 28.9124 56.0644 28.9124 60.0552C28.9124 60.9563 28.6203 62.1149 28.0363 63.531L21.7281 76.6621C20.4431 79.2368 19.8006 81.8115 19.8006 84.3862C19.8006 88.5058 21.4361 91.7885 24.707 94.2345C27.9778 96.7448 32.2417 98 37.4985 98C39.1339 98 42.1128 97.3885 46.435 96.1655C50.7573 95.0069 54.6123 93.7839 58 92.4966L57.1239 91.9172C56.7734 92.046 55.8973 92.3035 54.4955 92.6897C52.9768 93.0759 51.5166 93.3977 50.1148 93.6552C48.5962 93.9127 47.136 94.0414 45.7341 94.0414C41.1782 94.0414 37.8489 93.1724 35.7462 91.4345C33.5267 89.7609 32.4169 87.508 32.4169 84.6759C32.4169 82.423 33.0594 80.0414 34.3444 77.531L40.1269 65.8483C41.1782 63.7241 41.7039 61.8575 41.7039 60.2483C41.7039 53.2322 32.6506 49.5954 14.5438 49.3379V48.7586C22.6042 48.5655 29.146 47.6644 34.1692 46.0552C39.1924 44.446 41.7039 41.6138 41.7039 37.5586C41.7039 35.9494 41.1782 34.0828 40.1269 31.9586L34.3444 20.469C33.0594 17.9586 32.4169 15.6092 32.4169 13.4207C32.4169 10.5241 33.5267 8.20689 35.7462 6.46896C37.9658 4.73103 41.3535 3.86207 45.9094 3.86207C47.6616 3.86207 49.2971 4.02298 50.8157 4.34482C52.2175 4.66667 53.5025 4.98851 54.6707 5.31035C55.8389 5.63218 56.6566 5.85747 57.1239 5.9862L58 5.31035C54.6123 4.08735 50.7573 2.89655 46.435 1.73793C42.1128 0.579311 39.1339 0 37.4985 0C32.2417 0 27.9778 1.25517 24.707 3.76551C21.4361 6.21149 19.8006 9.46207 19.8006 13.5172C19.8006 16.1563 20.4431 18.7632 21.7281 21.3379L28.0363 34.3724C28.6203 35.4667 28.9124 36.6575 28.9124 37.9448C28.9124 41.8713 25.8751 44.5425 19.8006 45.9586C13.7261 47.3747 7.12589 48.0828 0 48.0828V49.8207Z" fill="#D4D4D4"/>
</svg>
