<svg width="58" height="98" viewBox="0 0 58 98" fill="none" xmlns="http://www.w3.org/2000/svg">
<path d="M58 49.8207C50.9909 49.8207 44.3907 50.5287 38.1994 51.9448C32.1249 53.3609 29.0876 56.0644 29.0876 60.0552C29.0876 60.9563 29.3797 62.1149 29.9637 63.531L36.2719 76.6621C37.5569 79.2368 38.1994 81.8115 38.1994 84.3862C38.1994 88.5058 36.5639 91.7885 33.293 94.2345C30.0222 96.7448 25.7583 98 20.5015 98C18.8661 98 15.8872 97.3885 11.565 96.1655C7.2427 95.0069 3.38771 93.7839 0 92.4966L0.876133 91.9172C1.22659 92.046 2.10272 92.3035 3.50453 92.6897C5.02316 93.0759 6.48338 93.3977 7.8852 93.6552C9.40383 93.9127 10.864 94.0414 12.2659 94.0414C16.8218 94.0414 20.1511 93.1724 22.2538 91.4345C24.4733 89.7609 25.5831 87.508 25.5831 84.6759C25.5831 82.423 24.9406 80.0414 23.6556 77.531L17.8731 65.8483C16.8218 63.7241 16.2961 61.8575 16.2961 60.2483C16.2961 53.2322 25.3494 49.5954 43.4562 49.3379V48.7586C35.3958 48.5655 28.854 47.6644 23.8308 46.0552C18.8076 44.446 16.2961 41.6138 16.2961 37.5586C16.2961 35.9494 16.8218 34.0828 17.8731 31.9586L23.6556 20.469C24.9406 17.9586 25.5831 15.6092 25.5831 13.4207C25.5831 10.5241 24.4733 8.20689 22.2538 6.46896C20.0342 4.73103 16.6465 3.86207 12.0906 3.86207C10.3384 3.86207 8.70292 4.02298 7.18429 4.34482C5.78248 4.66667 4.49748 4.98851 3.3293 5.31035C2.16113 5.63218 1.3434 5.85747 0.876133 5.9862L0 5.31035C3.38771 4.08735 7.2427 2.89655 11.565 1.73793C15.8872 0.579311 18.8661 0 20.5015 0C25.7583 0 30.0222 1.25517 33.293 3.76551C36.5639 6.21149 38.1994 9.46207 38.1994 13.5172C38.1994 16.1563 37.5569 18.7632 36.2719 21.3379L29.9637 34.3724C29.3797 35.4667 29.0876 36.6575 29.0876 37.9448C29.0876 41.8713 32.1249 44.5425 38.1994 45.9586C44.2739 47.3747 50.8741 48.0828 58 48.0828V49.8207Z" fill="#D4D4D4"/>
</svg>
